<svg width="54" height="13" viewBox="0 0 54 13" fill="none" xmlns="http://www.w3.org/2000/svg">
<path d="M12.0055 4.22608L8.28631 3.68555L6.62371 0.314947C6.5783 0.222662 6.50359 0.147955 6.41131 0.102544C6.17986 -0.0117133 5.89861 0.0835015 5.78289 0.314947L4.12029 3.68555L0.401051 4.22608C0.298512 4.24073 0.204762 4.28907 0.132985 4.36231C0.0462101 4.4515 -0.0016068 4.57149 4.12294e-05 4.69592C0.00168926 4.82034 0.0526674 4.93902 0.141774 5.02588L2.83269 7.64942L2.19695 11.354C2.18204 11.4402 2.19158 11.5288 2.22448 11.6098C2.25738 11.6909 2.31232 11.7611 2.38309 11.8125C2.45385 11.8639 2.53759 11.8944 2.62483 11.9006C2.71207 11.9068 2.7993 11.8885 2.87664 11.8477L6.2033 10.0986L9.52996 11.8477C9.62078 11.896 9.72625 11.9121 9.82732 11.8945C10.0822 11.8506 10.2536 11.6089 10.2096 11.354L9.5739 7.64942L12.2648 5.02588C12.3381 4.95411 12.3864 4.86036 12.4011 4.75782C12.4406 4.50147 12.2619 4.26417 12.0055 4.22608V4.22608Z" fill="#FFE816"/>
<path d="M25.4121 4.22608L21.6928 3.68555L20.0302 0.314947C19.9848 0.222662 19.9101 0.147955 19.8178 0.102544C19.5864 -0.0117133 19.3051 0.0835015 19.1894 0.314947L17.5268 3.68555L13.8076 4.22608C13.705 4.24073 13.6113 4.28907 13.5395 4.36231C13.4527 4.4515 13.4049 4.57149 13.4066 4.69592C13.4082 4.82034 13.4592 4.93902 13.5483 5.02588L16.2392 7.64942L15.6035 11.354C15.5886 11.4402 15.5981 11.5288 15.631 11.6098C15.6639 11.6909 15.7188 11.7611 15.7896 11.8125C15.8604 11.8639 15.9441 11.8944 16.0314 11.9006C16.1186 11.9068 16.2058 11.8885 16.2832 11.8477L19.6098 10.0986L22.9365 11.8477C23.0273 11.896 23.1328 11.9121 23.2338 11.8945C23.4887 11.8506 23.6601 11.6089 23.6162 11.354L22.9804 7.64942L25.6713 5.02588C25.7446 4.95411 25.7929 4.86036 25.8076 4.75782C25.8471 4.50147 25.6684 4.26417 25.4121 4.22608V4.22608Z" fill="#FFE816"/>
<path d="M38.8186 4.22608L35.0994 3.68555L33.4368 0.314947C33.3913 0.222662 33.3166 0.147955 33.2244 0.102544C32.9929 -0.0117133 32.7117 0.0835015 32.5959 0.314947L30.9333 3.68555L27.2141 4.22608C27.1116 4.24073 27.0178 4.28907 26.946 4.36231C26.8593 4.4515 26.8114 4.57149 26.8131 4.69592C26.8147 4.82034 26.8657 4.93902 26.9548 5.02588L29.6457 7.64942L29.01 11.354C28.9951 11.4402 29.0046 11.5288 29.0375 11.6098C29.0704 11.6909 29.1254 11.7611 29.1961 11.8125C29.2669 11.8639 29.3506 11.8944 29.4379 11.9006C29.5251 11.9068 29.6123 11.8885 29.6897 11.8477L33.0163 10.0986L36.343 11.8477C36.4338 11.896 36.5393 11.9121 36.6404 11.8945C36.8953 11.8506 37.0666 11.6089 37.0227 11.354L36.387 7.64942L39.0779 5.02588C39.1511 4.95411 39.1995 4.86036 39.2141 4.75782C39.2537 4.50147 39.0749 4.26417 38.8186 4.22608V4.22608Z" fill="#FFE816"/>
<path d="M52.7627 5.57964C52.9072 5.47197 53.0144 5.32176 53.0693 5.15008C53.1242 4.9784 53.1239 4.79385 53.0686 4.62232C53.0133 4.45079 52.9057 4.30087 52.7608 4.19358C52.616 4.0863 52.4412 4.02703 52.261 4.02409L48.761 3.89186C48.7438 3.89068 48.7273 3.88454 48.7135 3.87419C48.6997 3.86384 48.6892 3.84972 48.6833 3.83353L47.4738 0.566865C47.413 0.400669 47.3027 0.25716 47.1576 0.155769C47.0126 0.0543769 46.8399 0 46.663 0C46.486 0 46.3133 0.0543769 46.1683 0.155769C46.0233 0.25716 45.9129 0.400669 45.8521 0.566865L44.6466 3.8452C44.6406 3.86139 44.6301 3.8755 44.6163 3.88585C44.6025 3.8962 44.586 3.90234 44.5688 3.90353L41.0688 4.03575C40.8886 4.0387 40.7138 4.09797 40.569 4.20525C40.4242 4.31253 40.3166 4.46245 40.2612 4.63399C40.2059 4.80552 40.2057 4.99006 40.2605 5.16175C40.3154 5.33343 40.4226 5.48364 40.5671 5.59131L43.3127 7.74964C43.3264 7.76046 43.3367 7.77506 43.3422 7.79165C43.3478 7.80824 43.3483 7.82608 43.3438 7.84298L42.3988 11.1913C42.3498 11.3618 42.3546 11.5433 42.4124 11.711C42.4702 11.8787 42.5783 12.0245 42.7219 12.1286C42.8656 12.2328 43.0378 12.2901 43.2151 12.2929C43.3925 12.2956 43.5664 12.2437 43.7133 12.1441L46.6144 10.1996C46.6287 10.1898 46.6456 10.1845 46.663 10.1845C46.6803 10.1845 46.6973 10.1898 46.7116 10.1996L49.6127 12.1441C49.7575 12.2471 49.9308 12.3024 50.1085 12.3024C50.2862 12.3024 50.4595 12.2471 50.6044 12.1441C50.748 12.041 50.8562 11.8958 50.914 11.7287C50.9718 11.5616 50.9764 11.3806 50.9271 11.2108L49.9744 7.85075C49.9693 7.83389 49.9696 7.81587 49.9752 7.79917C49.9807 7.78246 49.9913 7.76788 50.0055 7.75742L52.7627 5.57964ZM49.2238 8.04131L50.1766 11.4013C50.1843 11.4193 50.1857 11.4393 50.1805 11.4582C50.1752 11.477 50.1637 11.4935 50.1478 11.5049C50.1319 11.5162 50.1125 11.5218 50.093 11.5207C50.0735 11.5195 50.0549 11.5117 50.0405 11.4985L47.1394 9.55409C46.997 9.45771 46.829 9.40623 46.6571 9.40631V0.780753C46.6755 0.779267 46.6937 0.784309 46.7086 0.794986C46.7236 0.805663 46.7343 0.821285 46.7388 0.839087L47.9483 4.10964C48.0068 4.27083 48.1121 4.41092 48.2506 4.51204C48.3892 4.61317 48.5547 4.67074 48.726 4.67742L52.226 4.80964C52.2443 4.80935 52.2622 4.81493 52.2771 4.82557C52.292 4.8362 52.3031 4.85134 52.3088 4.86874C52.3144 4.88615 52.3144 4.90491 52.3086 4.92227C52.3028 4.93963 52.2916 4.95468 52.2766 4.9652L49.531 7.12353C49.3936 7.22796 49.2907 7.37136 49.236 7.53506C49.1812 7.69876 49.1769 7.87517 49.2238 8.04131V8.04131Z" fill="#FFE816"/>
</svg>
