<svg width="66" height="14" viewBox="0 0 66 14" fill="none" xmlns="http://www.w3.org/2000/svg">
<path d="M12.0055 5.17188L8.28631 4.63135L6.62371 1.26075C6.5783 1.16846 6.50359 1.09376 6.41131 1.04835C6.17986 0.934087 5.89861 1.0293 5.78289 1.26075L4.12029 4.63135L0.401051 5.17188C0.298512 5.18653 0.204762 5.23487 0.132985 5.30811C0.0462101 5.3973 -0.0016068 5.51729 4.12294e-05 5.64172C0.00168926 5.76614 0.0526674 5.88483 0.141774 5.97169L2.83269 8.59522L2.19695 12.2998C2.18204 12.386 2.19158 12.4746 2.22448 12.5557C2.25738 12.6367 2.31232 12.7069 2.38309 12.7583C2.45385 12.8097 2.53759 12.8402 2.62483 12.8464C2.71207 12.8526 2.7993 12.8343 2.87664 12.7935L6.2033 11.0444L9.52996 12.7935C9.62078 12.8418 9.72625 12.8579 9.82732 12.8403C10.0822 12.7964 10.2536 12.5547 10.2096 12.2998L9.5739 8.59522L12.2648 5.97169C12.3381 5.89991 12.3864 5.80616 12.4011 5.70362C12.4406 5.44727 12.2619 5.20997 12.0055 5.17188V5.17188Z" fill="#FFE816"/>
<path d="M25.0055 5.17188L21.2863 4.63135L19.6237 1.26075C19.5783 1.16846 19.5036 1.09376 19.4113 1.04835C19.1799 0.934087 18.8986 1.0293 18.7829 1.26075L17.1203 4.63135L13.4011 5.17188C13.2985 5.18653 13.2048 5.23487 13.133 5.30811C13.0462 5.3973 12.9984 5.51729 13 5.64172C13.0017 5.76614 13.0527 5.88483 13.1418 5.97169L15.8327 8.59522L15.1969 12.2998C15.182 12.386 15.1916 12.4746 15.2245 12.5557C15.2574 12.6367 15.3123 12.7069 15.3831 12.7583C15.4538 12.8097 15.5376 12.8402 15.6248 12.8464C15.7121 12.8526 15.7993 12.8343 15.8766 12.7935L19.2033 11.0444L22.53 12.7935C22.6208 12.8418 22.7262 12.8579 22.8273 12.8403C23.0822 12.7964 23.2536 12.5547 23.2096 12.2998L22.5739 8.59522L25.2648 5.97169C25.3381 5.89991 25.3864 5.80616 25.4011 5.70362C25.4406 5.44727 25.2619 5.20997 25.0055 5.17188V5.17188Z" fill="#FFE816"/>
<path d="M38.0055 5.17188L34.2863 4.63135L32.6237 1.26075C32.5783 1.16846 32.5036 1.09376 32.4113 1.04835C32.1799 0.934087 31.8986 1.0293 31.7829 1.26075L30.1203 4.63135L26.4011 5.17188C26.2985 5.18653 26.2048 5.23487 26.133 5.30811C26.0462 5.3973 25.9984 5.51729 26 5.64172C26.0017 5.76614 26.0527 5.88483 26.1418 5.97169L28.8327 8.59522L28.1969 12.2998C28.182 12.386 28.1916 12.4746 28.2245 12.5557C28.2574 12.6367 28.3123 12.7069 28.3831 12.7583C28.4538 12.8097 28.5376 12.8402 28.6248 12.8464C28.7121 12.8526 28.7993 12.8343 28.8766 12.7935L32.2033 11.0444L35.53 12.7935C35.6208 12.8418 35.7262 12.8579 35.8273 12.8403C36.0822 12.7964 36.2536 12.5547 36.2096 12.2998L35.5739 8.59522L38.2648 5.97169C38.3381 5.89991 38.3864 5.80616 38.4011 5.70362C38.4406 5.44727 38.2619 5.20997 38.0055 5.17188V5.17188Z" fill="#FFE816"/>
<path d="M51.0055 5.17188L47.2863 4.63135L45.6237 1.26075C45.5783 1.16846 45.5036 1.09376 45.4113 1.04835C45.1799 0.934087 44.8986 1.0293 44.7829 1.26075L43.1203 4.63135L39.4011 5.17188C39.2985 5.18653 39.2048 5.23487 39.133 5.30811C39.0462 5.3973 38.9984 5.51729 39 5.64172C39.0017 5.76614 39.0527 5.88483 39.1418 5.97169L41.8327 8.59522L41.1969 12.2998C41.182 12.386 41.1916 12.4746 41.2245 12.5557C41.2574 12.6367 41.3123 12.7069 41.3831 12.7583C41.4538 12.8097 41.5376 12.8402 41.6248 12.8464C41.7121 12.8526 41.7993 12.8343 41.8766 12.7935L45.2033 11.0444L48.53 12.7935C48.6208 12.8418 48.7262 12.8579 48.8273 12.8403C49.0822 12.7964 49.2536 12.5547 49.2096 12.2998L48.5739 8.59522L51.2648 5.97169C51.3381 5.89991 51.3864 5.80616 51.4011 5.70362C51.4406 5.44727 51.2619 5.20997 51.0055 5.17188V5.17188Z" fill="#FFE816"/>
<path d="M65.2222 6.52544C65.3668 6.41777 65.474 6.26756 65.5288 6.09588C65.5837 5.9242 65.5834 5.73965 65.5281 5.56812C65.4728 5.39659 65.3652 5.24667 65.2204 5.13938C65.0755 5.0321 64.9008 4.97283 64.7206 4.96989L61.2206 4.83766C61.2034 4.83648 61.1869 4.83034 61.1731 4.81999C61.1593 4.80964 61.1487 4.79552 61.1428 4.77933L59.9333 1.51267C59.8726 1.34647 59.7622 1.20296 59.6172 1.10157C59.4721 1.00018 59.2995 0.945801 59.1225 0.945801C58.9456 0.945801 58.7729 1.00018 58.6278 1.10157C58.4828 1.20296 58.3724 1.34647 58.3117 1.51267L57.1061 4.791C57.1002 4.80719 57.0896 4.82131 57.0758 4.83166C57.062 4.84201 57.0456 4.84814 57.0283 4.84933L53.5283 4.98155C53.3481 4.9845 53.1734 5.04377 53.0285 5.15105C52.8837 5.25833 52.7761 5.40825 52.7208 5.57979C52.6655 5.75132 52.6652 5.93587 52.7201 6.10755C52.7749 6.27923 52.8821 6.42944 53.0267 6.53711L55.7722 8.69544C55.786 8.70626 55.7962 8.72086 55.8018 8.73745C55.8073 8.75404 55.8078 8.77188 55.8033 8.78878L54.8583 12.1371C54.8094 12.3076 54.8141 12.4891 54.8719 12.6568C54.9297 12.8245 55.0378 12.9703 55.1815 13.0744C55.3251 13.1786 55.4973 13.2359 55.6747 13.2387C55.8521 13.2414 56.026 13.1895 56.1728 13.0899L59.0739 11.1454C59.0882 11.1356 59.1051 11.1303 59.1225 11.1303C59.1399 11.1303 59.1568 11.1356 59.1711 11.1454L62.0722 13.0899C62.2171 13.1929 62.3904 13.2482 62.5681 13.2482C62.7458 13.2482 62.9191 13.1929 63.0639 13.0899C63.2076 12.9868 63.3157 12.8416 63.3735 12.6745C63.4314 12.5074 63.4359 12.3264 63.3867 12.1566L62.4339 8.79655C62.4289 8.77969 62.4291 8.76167 62.4347 8.74497C62.4403 8.72826 62.4509 8.71369 62.465 8.70322L65.2222 6.52544ZM61.6833 8.98711L62.6361 12.3471C62.6439 12.3651 62.6453 12.3851 62.64 12.404C62.6348 12.4228 62.6232 12.4393 62.6073 12.4507C62.5914 12.462 62.5721 12.4676 62.5525 12.4665C62.533 12.4653 62.5145 12.4575 62.5 12.4443L59.5989 10.4999C59.4566 10.4035 59.2886 10.352 59.1167 10.3521V1.72655C59.135 1.72507 59.1532 1.73011 59.1682 1.74079C59.1831 1.75146 59.1938 1.76709 59.1983 1.78489L60.4078 5.05544C60.4664 5.21663 60.5716 5.35672 60.7102 5.45785C60.8487 5.55897 61.0142 5.61654 61.1856 5.62322L64.6856 5.75544C64.7039 5.75515 64.7218 5.76073 64.7367 5.77137C64.7516 5.782 64.7627 5.79714 64.7683 5.81454C64.774 5.83195 64.7739 5.85071 64.7681 5.86807C64.7623 5.88543 64.7511 5.90048 64.7361 5.911L61.9906 8.06933C61.8531 8.17376 61.7503 8.31717 61.6955 8.48086C61.6407 8.64456 61.6365 8.82097 61.6833 8.98711V8.98711Z" fill="#FFE816"/>
</svg>
