<svg width="65" height="12" viewBox="0 0 65 12" fill="none" xmlns="http://www.w3.org/2000/svg">
<path d="M12.0055 4.17188L8.28631 3.63135L6.62371 0.260748C6.5783 0.168462 6.50359 0.0937554 6.41131 0.0483453C6.17986 -0.0659125 5.89861 0.0293023 5.78289 0.260748L4.12029 3.63135L0.401051 4.17188C0.298512 4.18653 0.204762 4.23487 0.132985 4.30811C0.0462101 4.3973 -0.0016068 4.51729 4.12294e-05 4.64172C0.00168926 4.76614 0.0526674 4.88483 0.141774 4.97169L2.83269 7.59522L2.19695 11.2998C2.18204 11.386 2.19158 11.4746 2.22448 11.5557C2.25738 11.6367 2.31232 11.7069 2.38309 11.7583C2.45385 11.8097 2.53759 11.8402 2.62483 11.8464C2.71207 11.8526 2.7993 11.8343 2.87664 11.7935L6.2033 10.0444L9.52996 11.7935C9.62078 11.8418 9.72625 11.8579 9.82732 11.8403C10.0822 11.7964 10.2536 11.5547 10.2096 11.2998L9.5739 7.59522L12.2648 4.97169C12.3381 4.89991 12.3864 4.80616 12.4011 4.70362C12.4406 4.44727 12.2619 4.20997 12.0055 4.17188V4.17188Z" fill="#FFE816"/>
<path d="M25.0055 4.17188L21.2863 3.63135L19.6237 0.260748C19.5783 0.168462 19.5036 0.0937554 19.4113 0.0483453C19.1799 -0.0659125 18.8986 0.0293023 18.7829 0.260748L17.1203 3.63135L13.4011 4.17188C13.2985 4.18653 13.2048 4.23487 13.133 4.30811C13.0462 4.3973 12.9984 4.51729 13 4.64172C13.0017 4.76614 13.0527 4.88483 13.1418 4.97169L15.8327 7.59522L15.1969 11.2998C15.182 11.386 15.1916 11.4746 15.2245 11.5557C15.2574 11.6367 15.3123 11.7069 15.3831 11.7583C15.4538 11.8097 15.5376 11.8402 15.6248 11.8464C15.7121 11.8526 15.7993 11.8343 15.8766 11.7935L19.2033 10.0444L22.53 11.7935C22.6208 11.8418 22.7262 11.8579 22.8273 11.8403C23.0822 11.7964 23.2536 11.5547 23.2096 11.2998L22.5739 7.59522L25.2648 4.97169C25.3381 4.89991 25.3864 4.80616 25.4011 4.70362C25.4406 4.44727 25.2619 4.20997 25.0055 4.17188V4.17188Z" fill="#FFE816"/>
<path d="M38.0055 4.17188L34.2863 3.63135L32.6237 0.260748C32.5783 0.168462 32.5036 0.0937554 32.4113 0.0483453C32.1799 -0.0659125 31.8986 0.0293023 31.7829 0.260748L30.1203 3.63135L26.4011 4.17188C26.2985 4.18653 26.2048 4.23487 26.133 4.30811C26.0462 4.3973 25.9984 4.51729 26 4.64172C26.0017 4.76614 26.0527 4.88483 26.1418 4.97169L28.8327 7.59522L28.1969 11.2998C28.182 11.386 28.1916 11.4746 28.2245 11.5557C28.2574 11.6367 28.3123 11.7069 28.3831 11.7583C28.4538 11.8097 28.5376 11.8402 28.6248 11.8464C28.7121 11.8526 28.7993 11.8343 28.8766 11.7935L32.2033 10.0444L35.53 11.7935C35.6208 11.8418 35.7262 11.8579 35.8273 11.8403C36.0822 11.7964 36.2536 11.5547 36.2096 11.2998L35.5739 7.59522L38.2648 4.97169C38.3381 4.89991 38.3864 4.80616 38.4011 4.70362C38.4406 4.44727 38.2619 4.20997 38.0055 4.17188V4.17188Z" fill="#FFE816"/>
<path d="M51.0055 4.17188L47.2863 3.63135L45.6237 0.260748C45.5783 0.168462 45.5036 0.0937554 45.4113 0.0483453C45.1799 -0.0659125 44.8986 0.0293023 44.7829 0.260748L43.1203 3.63135L39.4011 4.17188C39.2985 4.18653 39.2048 4.23487 39.133 4.30811C39.0462 4.3973 38.9984 4.51729 39 4.64172C39.0017 4.76614 39.0527 4.88483 39.1418 4.97169L41.8327 7.59522L41.1969 11.2998C41.182 11.386 41.1916 11.4746 41.2245 11.5557C41.2574 11.6367 41.3123 11.7069 41.3831 11.7583C41.4538 11.8097 41.5376 11.8402 41.6248 11.8464C41.7121 11.8526 41.7993 11.8343 41.8766 11.7935L45.2033 10.0444L48.53 11.7935C48.6208 11.8418 48.7262 11.8579 48.8273 11.8403C49.0822 11.7964 49.2536 11.5547 49.2096 11.2998L48.5739 7.59522L51.2648 4.97169C51.3381 4.89991 51.3864 4.80616 51.4011 4.70362C51.4406 4.44727 51.2619 4.20997 51.0055 4.17188V4.17188Z" fill="#FFE816"/>
<path d="M64.0055 4.17188L60.2863 3.63135L58.6237 0.260748C58.5783 0.168462 58.5036 0.0937554 58.4113 0.0483453C58.1799 -0.0659125 57.8986 0.0293023 57.7829 0.260748L56.1203 3.63135L52.4011 4.17188C52.2985 4.18653 52.2048 4.23487 52.133 4.30811C52.0462 4.3973 51.9984 4.51729 52 4.64172C52.0017 4.76614 52.0527 4.88483 52.1418 4.97169L54.8327 7.59522L54.1969 11.2998C54.182 11.386 54.1916 11.4746 54.2245 11.5557C54.2574 11.6367 54.3123 11.7069 54.3831 11.7583C54.4538 11.8097 54.5376 11.8402 54.6248 11.8464C54.7121 11.8526 54.7993 11.8343 54.8766 11.7935L58.2033 10.0444L61.53 11.7935C61.6208 11.8418 61.7262 11.8579 61.8273 11.8403C62.0822 11.7964 62.2536 11.5547 62.2096 11.2998L61.5739 7.59522L64.2648 4.97169C64.3381 4.89991 64.3864 4.80616 64.4011 4.70362C64.4406 4.44727 64.2619 4.20997 64.0055 4.17188V4.17188Z" fill="#FFE816"/>
</svg>
